<svg width="233" height="62" viewBox="0 0 233 62" fill="none" xmlns="http://www.w3.org/2000/svg">
<path d="M38.0833 0.820083C32.912 -0.393627 27.5155 -0.258183 22.4116 1.21343C17.3077 2.68503 12.6676 5.44343 8.9363 9.22403C5.205 13.0046 2.50775 17.6806 1.10326 22.8034C-0.301227 27.9261 -0.365827 33.3239 0.915658 38.4788C2.19714 43.6337 4.78172 48.3729 8.42146 52.2417C12.0612 56.1105 16.634 58.9792 21.7012 60.5725C26.7685 62.1658 32.1601 62.4304 37.359 61.3408C42.5578 60.2512 47.3895 57.844 51.3905 54.3501L36.5273 37.3295C35.4427 38.2766 34.133 38.9291 32.7237 39.2245C31.3145 39.5198 29.853 39.4481 28.4794 39.0162C27.1058 38.5843 25.8663 37.8067 24.8796 36.758C23.893 35.7093 23.1924 34.4246 22.845 33.0273C22.4977 31.6299 22.5152 30.1668 22.8959 28.7781C23.2766 27.3895 24.0078 26.122 25.0192 25.0972C26.0306 24.0724 27.2884 23.3247 28.672 22.9258C30.0555 22.5269 31.5183 22.4901 32.9201 22.8191L38.0833 0.820083Z" fill="#002B6C"/>
<path d="M48.5778 5.46527C43.2425 1.79256 36.8909 -0.116736 30.4149 0.00552278C23.9389 0.127781 17.6638 2.27545 12.471 6.14692C7.27816 10.0184 3.42844 15.4192 1.46246 21.5908C-0.503512 27.7624 -0.486972 34.3947 1.50976 40.5564C3.50649 46.7182 7.38311 52.0997 12.5952 55.9452C17.8072 59.7907 24.0929 61.9071 30.5695 61.997C37.046 62.087 43.388 60.146 48.7049 56.4467C54.0218 52.7475 58.0463 47.4757 60.2134 41.3718L44.8509 35.9176C43.8234 38.8116 41.9152 41.311 39.3944 43.065C36.8735 44.8189 33.8666 45.7391 30.7959 45.6965C27.7252 45.6538 24.745 44.6504 22.2738 42.8272C19.8026 41.0039 17.9646 38.4524 17.0179 35.531C16.0712 32.6095 16.0634 29.4649 16.9955 26.5388C17.9276 23.6127 19.7529 21.0521 22.2149 19.2165C24.677 17.3809 27.6521 16.3627 30.7226 16.3047C33.793 16.2467 36.8045 17.152 39.3341 18.8933L48.5778 5.46527Z" fill="#0E4495"/>
<path d="M53.7435 9.93504C48.8289 4.62877 42.2136 1.20795 35.0427 0.264739C27.8719 -0.678468 20.597 0.915319 14.4774 4.7702C8.35771 8.62508 3.77855 14.4984 1.53258 21.3734C-0.713388 28.2484 -0.484789 35.6924 2.17881 42.4166C4.8424 49.1408 9.77333 54.7221 16.118 58.1942C22.4626 61.6663 29.8216 62.8107 36.9211 61.4293C44.0205 60.0478 50.4134 56.2275 54.9932 50.6297C59.573 45.0319 62.0513 38.0089 61.9992 30.7765L52.9411 30.8418C52.978 35.9609 51.2239 40.9317 47.9823 44.8938C44.7408 48.856 40.2159 51.56 35.1909 52.5377C30.166 53.5155 24.9573 52.7055 20.4666 50.248C15.9758 47.7904 12.4857 43.84 10.6005 39.0806C8.71517 34.3212 8.55337 29.0524 10.1431 24.1863C11.7328 19.3202 14.9739 15.1631 19.3053 12.4346C23.6368 9.70617 28.786 8.57809 33.8614 9.24569C38.9369 9.91329 43.6192 12.3345 47.0978 16.0903L53.7435 9.93504Z" fill="#1A6CCA"/>
<path d="M79.992 39V22.2H87.624C89.448 22.2 91.056 22.552 92.448 23.256C93.84 23.944 94.928 24.912 95.712 26.16C96.496 27.408 96.888 28.888 96.888 30.6C96.888 32.296 96.496 33.776 95.712 35.04C94.928 36.288 93.84 37.264 92.448 37.968C91.056 38.656 89.448 39 87.624 39H79.992ZM83.88 35.808H87.432C88.552 35.808 89.52 35.6 90.336 35.184C91.168 34.752 91.808 34.144 92.256 33.36C92.72 32.576 92.952 31.656 92.952 30.6C92.952 29.528 92.72 28.608 92.256 27.84C91.808 27.056 91.168 26.456 90.336 26.04C89.52 25.608 88.552 25.392 87.432 25.392H83.88V35.808ZM105.964 39.192C104.492 39.192 103.196 38.904 102.076 38.328C100.972 37.752 100.116 36.968 99.5081 35.976C98.9001 34.968 98.5961 33.824 98.5961 32.544C98.5961 31.248 98.8921 30.104 99.4841 29.112C100.092 28.104 100.916 27.32 101.956 26.76C102.996 26.184 104.172 25.896 105.484 25.896C106.748 25.896 107.884 26.168 108.892 26.712C109.916 27.24 110.724 28.008 111.316 29.016C111.908 30.008 112.204 31.2 112.204 32.592C112.204 32.736 112.196 32.904 112.18 33.096C112.164 33.272 112.148 33.44 112.132 33.6H101.644V31.416H110.164L108.724 32.064C108.724 31.392 108.588 30.808 108.316 30.312C108.044 29.816 107.668 29.432 107.188 29.16C106.708 28.872 106.148 28.728 105.508 28.728C104.868 28.728 104.3 28.872 103.804 29.16C103.324 29.432 102.948 29.824 102.676 30.336C102.404 30.832 102.268 31.424 102.268 32.112V32.688C102.268 33.392 102.42 34.016 102.724 34.56C103.044 35.088 103.484 35.496 104.044 35.784C104.62 36.056 105.292 36.192 106.06 36.192C106.748 36.192 107.348 36.088 107.86 35.88C108.388 35.672 108.868 35.36 109.3 34.944L111.292 37.104C110.7 37.776 109.956 38.296 109.06 38.664C108.164 39.016 107.132 39.192 105.964 39.192ZM112.127 39L119.351 29.04V31.872L112.439 22.2H116.855L121.631 28.944L119.783 28.968L124.487 22.2H128.711L121.847 31.704V28.92L129.119 39H124.631L119.687 31.872H121.463L116.591 39H112.127ZM141.576 29.76H149.64V32.88H141.576V29.76ZM141.864 39H137.976V22.2H150.672V25.32H141.864V39ZM158.184 39.192C157.112 39.192 156.152 38.984 155.304 38.568C154.472 38.152 153.824 37.52 153.36 36.672C152.896 35.808 152.664 34.712 152.664 33.384V26.088H156.408V32.832C156.408 33.904 156.632 34.696 157.08 35.208C157.544 35.704 158.192 35.952 159.024 35.952C159.6 35.952 160.112 35.832 160.56 35.592C161.008 35.336 161.36 34.952 161.616 34.44C161.872 33.912 162 33.256 162 32.472V26.088H165.744V39H162.192V35.448L162.84 36.48C162.408 37.376 161.768 38.056 160.92 38.52C160.088 38.968 159.176 39.192 158.184 39.192ZM174.492 39.192C172.972 39.192 171.788 38.808 170.94 38.04C170.092 37.256 169.668 36.096 169.668 34.56V23.232H173.412V34.512C173.412 35.056 173.556 35.48 173.844 35.784C174.132 36.072 174.524 36.216 175.02 36.216C175.612 36.216 176.116 36.056 176.532 35.736L177.54 38.376C177.156 38.648 176.692 38.856 176.148 39C175.62 39.128 175.068 39.192 174.492 39.192ZM167.676 29.256V26.376H176.628V29.256H167.676ZM185.09 39.192C184.018 39.192 183.058 38.984 182.21 38.568C181.378 38.152 180.73 37.52 180.266 36.672C179.802 35.808 179.57 34.712 179.57 33.384V26.088H183.314V32.832C183.314 33.904 183.538 34.696 183.986 35.208C184.45 35.704 185.098 35.952 185.93 35.952C186.506 35.952 187.018 35.832 187.466 35.592C187.914 35.336 188.266 34.952 188.522 34.44C188.778 33.912 188.906 33.256 188.906 32.472V26.088H192.65V39H189.098V35.448L189.746 36.48C189.314 37.376 188.674 38.056 187.826 38.52C186.994 38.968 186.082 39.192 185.09 39.192ZM196.119 39V26.088H199.695V29.736L199.191 28.68C199.575 27.768 200.191 27.08 201.039 26.616C201.887 26.136 202.919 25.896 204.135 25.896V29.352C203.975 29.336 203.831 29.328 203.703 29.328C203.575 29.312 203.439 29.304 203.295 29.304C202.271 29.304 201.439 29.6 200.799 30.192C200.175 30.768 199.863 31.672 199.863 32.904V39H196.119ZM212.675 39.192C211.203 39.192 209.907 38.904 208.787 38.328C207.683 37.752 206.827 36.968 206.219 35.976C205.611 34.968 205.307 33.824 205.307 32.544C205.307 31.248 205.603 30.104 206.195 29.112C206.803 28.104 207.627 27.32 208.667 26.76C209.707 26.184 210.883 25.896 212.195 25.896C213.459 25.896 214.595 26.168 215.603 26.712C216.627 27.24 217.435 28.008 218.027 29.016C218.619 30.008 218.915 31.2 218.915 32.592C218.915 32.736 218.907 32.904 218.891 33.096C218.875 33.272 218.859 33.44 218.843 33.6H208.355V31.416H216.875L215.435 32.064C215.435 31.392 215.299 30.808 215.027 30.312C214.755 29.816 214.379 29.432 213.899 29.16C213.419 28.872 212.859 28.728 212.219 28.728C211.579 28.728 211.011 28.872 210.515 29.16C210.035 29.432 209.659 29.824 209.387 30.336C209.115 30.832 208.979 31.424 208.979 32.112V32.688C208.979 33.392 209.131 34.016 209.435 34.56C209.755 35.088 210.195 35.496 210.755 35.784C211.331 36.056 212.003 36.192 212.771 36.192C213.459 36.192 214.059 36.088 214.571 35.88C215.099 35.672 215.579 35.36 216.011 34.944L218.003 37.104C217.411 37.776 216.667 38.296 215.771 38.664C214.875 39.016 213.843 39.192 212.675 39.192ZM225.752 39.192C224.648 39.192 223.584 39.064 222.56 38.808C221.552 38.536 220.752 38.2 220.16 37.8L221.408 35.112C222 35.48 222.696 35.784 223.496 36.024C224.312 36.248 225.112 36.36 225.896 36.36C226.76 36.36 227.368 36.256 227.72 36.048C228.088 35.84 228.272 35.552 228.272 35.184C228.272 34.88 228.128 34.656 227.84 34.512C227.568 34.352 227.2 34.232 226.736 34.152C226.272 34.072 225.76 33.992 225.2 33.912C224.656 33.832 224.104 33.728 223.544 33.6C222.984 33.456 222.472 33.248 222.008 32.976C221.544 32.704 221.168 32.336 220.88 31.872C220.608 31.408 220.472 30.808 220.472 30.072C220.472 29.256 220.704 28.536 221.168 27.912C221.648 27.288 222.336 26.8 223.232 26.448C224.128 26.08 225.2 25.896 226.448 25.896C227.328 25.896 228.224 25.992 229.136 26.184C230.048 26.376 230.808 26.656 231.416 27.024L230.168 29.688C229.544 29.32 228.912 29.072 228.272 28.944C227.648 28.8 227.04 28.728 226.448 28.728C225.616 28.728 225.008 28.84 224.624 29.064C224.24 29.288 224.048 29.576 224.048 29.928C224.048 30.248 224.184 30.488 224.456 30.648C224.744 30.808 225.12 30.936 225.584 31.032C226.048 31.128 226.552 31.216 227.096 31.296C227.656 31.36 228.216 31.464 228.776 31.608C229.336 31.752 229.84 31.96 230.288 32.232C230.752 32.488 231.128 32.848 231.416 33.312C231.704 33.76 231.848 34.352 231.848 35.088C231.848 35.888 231.608 36.6 231.128 37.224C230.648 37.832 229.952 38.312 229.04 38.664C228.144 39.016 227.048 39.192 225.752 39.192Z" fill="white" fill-opacity="0.9"/>
</svg>
